<svg data-name="Layer 1" xmlns="http://www.w3.org/2000/svg" xmlns:xlink="http://www.w3.org/1999/xlink" viewBox="0 0 1080 323.7"><defs><linearGradient id="k" x1="761.2" y1="92.73" x2="1017.07" y2="92.73" xlink:href="#a"/><linearGradient id="a" x1="305.18" y1="161.85" x2="542.51" y2="161.85" gradientUnits="userSpaceOnUse"><stop offset="0" stop-color="#9ea2a3"/><stop offset="1" stop-color="#6d6e70"/></linearGradient><linearGradient id="e" x1="18.93" y1="96.83" x2="262.41" y2="96.83" gradientUnits="userSpaceOnUse"><stop offset="0" stop-color="#6d6e70"/><stop offset="1" stop-color="#9ea2a3"/></linearGradient><linearGradient id="b" x1="696.69" y1="127.04" x2="707.9" y2="138.25" gradientUnits="userSpaceOnUse"><stop offset="0" stop-color="#9ea2a3"/><stop offset="1" stop-color="#595a5c"/></linearGradient><linearGradient id="f" x1="637.27" y1="183.81" x2="648.6" y2="195.13" xlink:href="#b"/><linearGradient id="g" x1="638.56" y1="138.82" x2="650.52" y2="126.86" xlink:href="#b"/><linearGradient id="h" x1="696.52" y1="196.7" x2="707.56" y2="185.66" xlink:href="#b"/><linearGradient id="i" x1="761.2" y1="69.9" x2="1017.07" y2="69.9" xlink:href="#a"/><linearGradient id="j" x1="761.2" y1="73.91" x2="1017.07" y2="73.91" xlink:href="#a"/><linearGradient id="d" x1="17.56" y1="226.75" x2="262.59" y2="226.75" xlink:href="#a"/><linearGradient id="l" x1="761.2" y1="56.59" x2="1017.07" y2="56.59" xlink:href="#a"/><linearGradient id="c" x1="805.24" y1="171.02" x2="1050.7" y2="171.02" gradientUnits="userSpaceOnUse"><stop offset="0" stop-color="#9ea2a3"/><stop offset="1" stop-color="#6d6e70"/></linearGradient><linearGradient id="m" x1="805.24" y1="176.91" x2="1050.7" y2="176.91" xlink:href="#c"/><linearGradient id="n" x1="805.24" y1="193.32" x2="1050.7" y2="193.32" xlink:href="#c"/><linearGradient id="o" x1="805.24" y1="197.34" x2="1050.7" y2="197.34" xlink:href="#c"/><linearGradient id="p" x1="805.24" y1="162.13" x2="1050.7" y2="162.13" xlink:href="#c"/><linearGradient id="q" x1="805.24" y1="162.13" x2="1050.7" y2="162.13" xlink:href="#c"/><linearGradient id="r" x1="803.51" y1="262.09" x2="1041.82" y2="262.09" xlink:href="#a"/><linearGradient id="s" x1="803.51" y1="250.08" x2="1041.82" y2="250.08" xlink:href="#a"/></defs><path d="M305.18 282.78h32.34v-74.65h211.04v-38.76H347.15c-5.32 0-9.63-4.31-9.63-9.63 0-5.32 4.31-9.63 9.63-9.63h201.41V40.92H416.14c-61.31 0-110.97 48.22-110.97 107.67v134.19Z" style="fill:url(#a);stroke-width:0"/><path d="M131.89 282.78c-61.9 0-112.06-50.16-112.06-112.06h244.23v112.06H131.9Z" style="fill:url(#d);stroke-width:0"/><path d="M261.43 152.73c1.6 0 2.87-1.35 2.7-2.96-6.92-61.23-58.86-108.85-122.03-108.85S27.09 88.47 20.16 149.78c-.17 1.6 1.1 2.96 2.7 2.96h238.57Z" style="fill:url(#e);stroke-width:0"/><path d="M726.35 123.82c3.46-3.29 3.63-8.7.42-12.16-3.29-3.46-8.7-3.63-12.16-.42l-40.92 38.23 12.16 12.19 40.5-37.84Z" style="fill:url(#b);stroke-width:0"/><path d="M619.6 199.99c-3.46 3.21-3.72 8.7-.42 12.16 3.29 3.46 8.7 3.63 12.16.42l41.93-39.17-12.16-12.19-41.51 38.78Z" style="fill:url(#f);stroke-width:0"/><path d="M634.04 109.72c-3.29-3.29-8.78-3.29-12.16 0a8.559 8.559 0 0 0 0 12.16l39.23 39.34 12.57-11.75-39.64-39.75Z" style="fill:url(#g);stroke-width:0"/><path d="m685.84 161.66-12.57 11.75 40.41 40.52a8.559 8.559 0 0 0 12.16 0 8.559 8.559 0 0 0 0-12.16l-40-40.11Z" style="fill:url(#h);stroke-width:0"/><path d="M778.43 55.54c.08-.24-.08-.56-.32-.64-.88-.32-2.72-1.2-3.76-2.56-1.36-1.68-2.4-7.91 2.08-14.38 4.47-6.47 11.51-10.47 21.17-10.47s19.58 4.63 25.25 16.46c5.59 11.83 7.83 35.96-2.72 53.3-3.84 5.35-9.59 11.27-19.26 13.9 0 0 2.32-22.05 2.32-40.19s.88-31.88-4.95-36.28-12.23-.8-13.66 2.48c-1.36 3.2 1.36 5.43 1.6 7.51s1.12 17.9.8 28.93c-.32 11.03-1.52 32.52-2.8 37.55 0 0-2.96-1.04-3.6-2.64-.64-1.6-.08-2.96.72-3.68.8-.72 1.04-3.2-1.04-5.19-2.08-2-8.07-.8-8.95 3.2-.88 4-1.28 8.31 5.43 13.1 6.79 4.79 21.57 4.31 27.17 3.52 5.59-.8 27.17-5.59 37.08-27.01 9.91-21.41 4.31-45.31-6.31-57.53-10.63-12.15-25.89-15.1-38.67-15.1s-29.56 7.43-34.92 22.61c-2.88 7.35-2.48 15.58 1.92 19.02s9.03 2.4 11.51.88c2.4-1.44 3.6-5.43 3.92-6.79Z" style="fill:url(#i);stroke-width:0"/><path d="M926.42 62.57c3.28-.72 13.82-5.03 17.58-15.18 3.76-10.15-.32-16.46-7.43-16.46s-16.22 4.63-28.21 25.89c0 0-6.23-.88-10.63-7.19-2.16-2.72-2.4-7.19-1.36-8.31.96-1.12 3.44-1.84 3.04-4.08-.4-2.32-1.84-5.91-7.91-5.91s-11.27 5.11-11.27 12.47 4.47 17.42 25.33 20.62c0 0-7.19 13.98-5.51 30.52.72 5.99.8 8.71-2.4 11.43-3.2 2.72-5.99 2.24-7.91-.32-1.84-2.56-2.4-11.75-1.36-19.02 1.04-7.27 3.04-11.19 4.08-11.91 1.12-.72.4-7.03-5.43-7.03s-9.91 3.84-11.99 12.07.32 17.26-1.44 21.73c-1.76 4.47-4.63 5.59-7.27 5.59s-5.27-3.92-5.35-10.63c-.16-6.71 1.28-14.62 2.24-18.22.4-1.52 1.36-2.64 2.4-3.84.32-.4.72-.8.8-1.28.16-.88-.24-1.92-.64-2.72-.16-.4-.4-.8-.72-1.12-.48-.56-.96-1.04-1.6-1.36-1.12-.56-2.4-.8-3.6-.8-3.76 0-7.59 2.72-10.79 10.39-3.2 7.75-2.24 20.3 0 26.61 2.24 6.31 7.91 11.51 14.54 11.51 6.07 0 11.35-5.11 13.5-8.07.24-.32.72-.24.88.08.8 1.76 2.96 5.91 6.39 7.51 4.39 2 10.23 1.36 14.7-1.6 2.8-1.92 4-3.6 4.47-4.63.16-.24.56-.24.64 0 .72 1.6 2.72 4.95 7.91 6.55 7.11 2.24 14.86 1.12 22.69-6.23s7.27-17.02 6.07-24.69c-1.2-7.59-7.03-11.19-11.51-11.19s-10.23 2.24-10.23 2.24 1.6-5.35 2.32-7.91c.4-2.48 1.68-4.79 4.95-5.51Zm5.35-20.45c3.2-4.95 5.67-4.87 6.71-4s.8 4.39-.88 7.67c-1.68 3.28-4.87 7.03-11.67 9.35 0 .08 2.64-7.99 5.83-13.02Zm-10.79 40.11s1.52-2.08 3.84-2.08 4.39 5.11 3.68 13.5c-.72 8.31-2.8 12.78-5.11 14.94-2.4 2.16-4.95.8-5.43-.72-.4-1.52-1.52-6.71-1.6-10.95-.08-9.35 4.63-14.7 4.63-14.7Z" style="fill:url(#j);stroke-width:0"/><path d="M1022.94 104.2c-.88-4.71-4.71-4.63-5.75-4.63s-4.23 1.2-2.56 4.31c1.76 3.12.56 5.35-2.4 5.35s-4.47-2.72-2.56-11.27c1.92-8.55 4.39-14.78 4.39-18.86s-1.04-6.07-2-7.43c-.96-1.36-4.95-4.71-10.55-2.8-3.2.88-4.15 3.68-3.6 4.47.64.8 1.2 1.6.32 4.79-.88 3.2-2.4 12.39-4.63 18.62-2.24 6.23-6.47 10.31-8.31 10.15-1.92-.24-1.84-3.04-.4-8.39 1.44-5.27 1.04-7.67-2.24-9.51-3.28-1.84-6.47.16-8.79 4.16-2.32 4-7.67 15.02-12.07 14.38s-4-9.59-2.88-15.26c1.04-5.67 4.15-12.31 8.23-14.62 4.15-2.32 7.19 0 6.63 2.16s-1.52 5.35 3.44 5.35 6.31-3.52 6.31-5.99c0 0 .56-10.39-13.5-10.39-4.95 0-16.46 1.76-24.53 17.5-2.96 5.75-2.8 13.26-1.2 19.42.72 2.96 1.76 6.15 3.92 8.39 2.96 2.96 7.03 3.52 11.03 2.64 2.48-.56 5.27-1.52 7.27-3.12 2.08-1.68 3.36-3.36 3.92-4.23.16-.16.4-.16.48.08.56 1.76 2.72 7.11 9.19 7.11 7.83 0 12.78-7.35 14.22-10.55 0 0 .96 11.11 16.46 11.11 9.75.08 13.02-8.23 12.15-12.94Z" style="fill:url(#k);stroke-width:0"/><path d="M1007.2 48.75s5.19-.24 7.67 4.08c2.48 4.31.48 10.79-4.95 11.51-5.51.72-12.07-2.32-12.07-6.63 0-4.31 2.4-8.71 9.35-8.95Z" style="fill:url(#l);stroke-width:0"/><path d="M823.34 156.54c.08-.24-.08-.56-.32-.64-.88-.32-2.72-1.2-3.76-2.48-1.36-1.68-2.4-7.83 2.08-14.3 4.47-6.47 11.51-10.47 21.09-10.47s19.58 4.63 25.17 16.38c5.59 11.75 7.83 35.88-2.72 53.14-3.84 5.35-9.59 11.19-19.18 13.9 0 0 2.32-21.97 2.32-40.03s.88-31.8-4.95-36.2c-5.83-4.39-12.23-.72-13.58 2.48-1.36 3.2 1.36 5.43 1.6 7.51s1.12 17.82.72 28.85c-.32 11.03-1.52 32.44-2.8 37.48 0 0-2.96-1.04-3.6-2.64-.64-1.6-.08-2.96.72-3.68s1.04-3.2-1.04-5.19-7.99-.8-8.95 3.2c-.88 4-1.28 8.23 5.43 13.02 6.71 4.79 21.49 4.31 27.09 3.52 5.59-.8 27.09-5.59 37-26.85 9.91-21.33 4.31-45.23-6.23-57.37-10.63-12.15-25.89-15.02-38.59-15.02s-29.48 7.43-34.76 22.61c-2.88 7.35-2.48 15.58 1.92 18.94 4.39 3.36 9.03 2.4 11.51.88 2.4-1.76 3.52-5.67 3.84-7.03Z" style="stroke-width:0;fill:url(#c)"/><path d="M946.31 181.95c-.48 3.28-2.4 12.31-4.63 18.46-2.24 6.15-6.39 10.23-8.31 10.07-1.84-.24-1.84-3.04-.4-8.31s1.04-7.59-2.16-9.43c-3.28-1.84-6.47.16-8.71 4.16-2.32 4-7.67 14.94-11.99 14.22-4.39-.64-4-9.51-2.88-15.1 1.04-5.67 4.08-12.23 8.23-14.46 4.08-2.32 7.19 0 6.63 2.16s-1.52 5.27 3.44 5.27 6.23-3.52 6.31-5.91c0 0 .56-10.31-13.5-10.31-4.87 0-16.46 1.76-24.45 17.34-2.96 5.75-2.72 13.18-1.2 19.26.72 2.96 1.76 6.15 3.92 8.31 2.96 2.96 7.03 3.52 10.95 2.64 2.48-.56 5.27-1.52 7.27-3.12a20.71 20.71 0 0 0 3.92-4.16c.16-.16.4-.16.48.08.56 1.76 2.64 7.03 9.19 7.03 7.83 0 12.7-7.35 14.14-10.47 0 0 .96 11.03 16.38 11.03 9.59 0 12.78-8.23 11.91-12.86-.88-4.63-4.63-4.55-5.75-4.55-1.04 0-4.23 1.12-2.56 4.23 1.76 3.12.56 5.27-2.4 5.27s-4.47-2.72-2.56-11.19c0 0 1.36-6.07 2-9.91.56-3.84 2.08-21.41 2.24-23.57 0 0 5.35.08 7.51 3.84 1.2 2 1.04 3.12.24 3.84-.8.72-1.12 4.31 3.52 4.31s6.47-4.16 6.47-7.51-4.39-12.54-17.34-9.51c0 0 1.36-15.58 1.44-22.13.16-4.87-2.64-7.83-7.51-7.83s-8.23 2.4-7.51 6.71c.72 4.31-.4 21.65-.4 21.65s-4.47-.8-8.39-6.07c-1.92-3.04-2.16-6.31-.56-7.67s1.76-2.48-.08-4.71c-1.92-2.24-7.35-3.92-12.62 1.04-5.27 4.95-2 17.26 5.83 21.41 7.83 4.16 14.94 3.12 14.94 3.12s-.32 8.39-1.04 13.34Z" style="fill:url(#m);stroke-width:0"/><path d="M1051.39 176.04s1.12-4.55-5.51-8.39c-6.63-3.84-17.74-1.68-24.37 5.67-6.55 7.35-5.83 16.54-4.55 20.22 1.36 3.68 7.27 6.15 13.1 3.52 5.83-2.64 7.75-3.12 8.79-2.08.96 1.04 1.44 4-1.92 10.07s-7.43 9.11-10.87 9.11-4.31-2.4-3.2-3.76.96-2.8-.64-4c-1.68-1.2-7.35-1.28-7.35 4.39s5.03 10.07 13.82 10.07 18.94-6.15 21.17-17.5c2.24-11.35-3.68-14.86-8.39-14.86-3.04 0-5.59.96-8.63 2.32-2.96 1.36-4.23 1.92-5.51.72s-.8-4.95 1.52-9.03c1.04-1.76 2.16-3.44 3.44-4.95 1.92-2.32 4.08-5.03 7.35-5.35.88-.08 2.08-.08 2.88.4 1.28.8 1.84 1.92.96 3.36-.88 1.36-1.92 4.08 2.08 4.87 5.35.88 5.83-4.79 5.83-4.79Z" style="fill:url(#n);stroke-width:0"/><path d="M997.05 201.13c5.59 0 15.5-5.43 15.5-13.82s-5.19-13.42-13.58-13.42-22.21 6.15-25.57 23.89c-1.2 8.39 1.04 18.46 6.95 21.41 5.91 2.96 15.5 1.52 18.46-1.6 2.96-3.2 4.15-8.23 2.72-12.07-1.44-3.84-5.75-2.72-7.27-1.84-1.52.8-1.36 2.56-.08 3.36s1.36 3.04-.08 4.63c-1.44 1.6-3.76 1.68-5.51-2.32-1.76-3.92-.4-9.91-.4-9.91s3.28 1.68 8.87 1.68Zm-3.51-16.78c3.04-3.52 6.87-3.12 8.47-1.52 1.6 1.6 1.68 3.2-2.24 6.39-5.83 4.71-10.79 5.19-10.79 5.19s1.52-6.55 4.55-10.07Z" style="fill:url(#o);stroke-width:0"/><path d="M1056.26 159.65c.16.08.32.24.48.4.08.16.24.32.24.48.08.16.08.32.08.56s-.08.48-.16.72c-.16.24-.32.4-.64.48.24.08.4.24.48.4s.16.48.16.8v.8c0 .16.08.24.24.32v.16h-1.2c0-.08-.08-.24-.08-.32 0-.16-.08-.32-.08-.48v-.48c0-.32-.08-.56-.16-.64s-.32-.16-.64-.16h-1.12v2.08h-1.04v-5.27h2.56c.48 0 .72.08.88.16Zm-2.24.8v1.44h1.2c.24 0 .4 0 .56-.08.24-.08.32-.32.32-.64s-.08-.56-.32-.64c-.08-.08-.32-.08-.48-.08h-1.28Z" style="fill:url(#p);stroke-width:0"/><path d="M1055.06 167.25c-2.8 0-5.11-2.32-5.11-5.11s2.32-5.11 5.11-5.11 5.11 2.32 5.11 5.11c.08 2.8-2.24 5.11-5.11 5.11Zm0-9.51c-2.4 0-4.39 2-4.39 4.39s2 4.39 4.39 4.39 4.39-2 4.39-4.39-1.92-4.39-4.39-4.39Z" style="fill:url(#q);stroke-width:0"/><path d="M1038.6 228.05c-6.39 4-8.55 5.51-40.75 5.51s-136.4-.8-194.09 14.94c-.48.16-.64.72-.24 1.04 2.96 2.32 11.67 9.83 11.99 20.77-.08 4.55.16 17.58-15.18 33.56 0 0 31.08-17.42 59.77-27.57 28.77-10.15 76.87-19.18 122.81-24.29 45.94-5.11 63.84-7.91 67.2-31.72 0 .08-5.11 3.76-11.51 7.75Zm-131.84 13.19c.08 0 .16-.16.32-.24.32-.08.56.08.88.16.08.08.24.08.4.16.08.08.16.08.24.08.32.08.72.16.88.64.08.56.16.96.08 1.28-.08.4-.32.64-.72.72-.24.08-.4.08-.64.08-.88 0-1.76-.32-1.92-.88-.08-.4.24-1.6.48-2Zm-15.98 3.83c.08 0 .16-.16.32-.24.32-.08.56.08.88.16.16.08.32.08.48.16.08.08.16.08.24.08.24.08.72.16.8.64.08.56.16.96.08 1.28-.08.4-.32.64-.72.72-.24.08-.4.08-.64.08s-.56-.08-.88-.16c-.32-.08-.88-.32-1.04-.8-.08-.4.24-1.52.48-1.92Zm50.9-.4-.4.88c-1.84 4.16-3.12 5.91-4.47 6.23-.64.08-1.28 0-1.76-.32-.56-.32-.88-.88-1.04-1.52-.16-.72-.08-1.84.08-3.6.08-.48.08-1.04.16-1.68.08-.72.24-2.48.16-2.72l-.08-.08h-.16c-.4.08-1.52 1.28-3.2 5.43-.72 1.68-1.12 3.04-1.36 4.24-.08.16-.08.32-.08.48-.08.48-.16.88-.8 1.2l-1.36.56h-.16c-.24 0-.48-.16-.56-.48-.08-.16-.08-.32-.08-.56l.32-4.47c-1.44 3.2-2.32 4.71-3.6 5.03-.48.08-.96.08-1.36-.16-1.12 1.76-2.4 2.72-3.92 3.12-.4.08-.8.16-1.2.16-1.92 0-3.44-1.12-4.07-3.04-1.36 2.8-2.72 4.63-4.47 5.03-.24.08-.48.08-.64.08-1.04 0-1.92-.72-2.16-1.84-.16-.48-.16-1.2-.08-2.24l.08-.64c-1.84 4.31-3.2 6.23-4.87 6.63-.32.08-.56.08-.8.08-.48 0-.88-.16-1.2-.32-.48-.32-.88-.88-1.04-1.6-.16-.56-.16-1.6-.08-3.12-1.68 3.68-3.2 6.23-5.27 6.71-.16.08-.4.08-.56.08-1.04 0-1.92-.72-2.16-1.84-.16-.48-.16-1.2-.08-2.24l.08-1.04c-1.76 4.31-2.88 6.55-4.87 7.03-.24.08-.48.08-.72.08-1.12 0-1.92-.64-2.24-1.84-.32-1.36.08-3.76 1.12-6.87-.72.64-1.36 1.04-1.84 1.12-.24.08-.48.08-.64.08-.08.72-.4 1.44-.8 2.48v.08c-2 4.95-3.52 7.11-5.27 7.51-.32.08-.56.08-.8.08-1.12 0-1.92-.64-2.24-1.84-.16-.64-.16-2.08-.08-3.2-1.68 4.16-3.36 6.47-4.79 6.79-1.2.24-2.24-.4-2.56-1.76-.16-.48-.16-1.52 0-3.2-1.76 4.39-3.2 6.31-4.79 6.71-.24.08-.48.08-.64.08-.88 0-1.6-.56-1.84-1.68-.08-.32-.08-.8-.08-1.36-1.28 2.96-2.56 4.79-4.79 5.35-2 .48-4-.8-4.47-2.96-.48-2.16-.24-4.63.08-7.83 0-.64.08-1.28.16-1.92l.08-1.2c.32-3.36.56-5.59.32-6.63-.16-.56-.56-.8-1.04-.64-1.52.4-3.44 4-5.67 10.87-1.36 4.16-2.08 7.19-2.24 9.51-.08.32-.08.64-.08.88-.08.96-.08 1.68-.96 2l-1.12.4h-.16c-.32 0-.64-.24-.72-.64v-.16l.4-14.54c0-1.2-.08-2.08-.24-2.8-.32-1.36-1.04-2.24-2.08-2.72-1.12-.48-2.56-.48-4.39-.08-2.24.56-4 1.44-5.11 2.72-1.04 1.2-1.44 2.48-1.12 3.76.24.96.88 1.68 1.76 2.08.96.4 2.24.48 3.6.16 1.28-.24 2.64-.96 4-2 .08-.08.16-.08.24-.08h.24c.08 0 .16.08.24.16l.16.24c.08.08.08.16.08.24v.24c0 .08 0 .16-.08.24-1.36 1.2-3.04 2.08-4.95 2.56-3.68.88-6.71-.48-7.43-3.36-.8-3.6 2.48-6.87 8.15-8.23 2.64-.64 4.87-.64 6.55 0 1.76.56 2.88 1.84 3.28 3.6.32 1.04.4 3.12.24 6.15l-.08 1.68c3.04-9.91 5.35-14.06 7.99-14.7 1.76-.4 3.28.48 3.68 2.16.24 1.04.08 2.88-.24 5.67-.08 1.2-.24 2.56-.4 4.16-.4 4.87-.24 6.87-.08 7.67.24 1.2 1.04 1.84 1.92 1.6 1.52-.32 3.04-3.28 4.95-8.23l.32-3.52v-.08c0-.4.08-.72.64-.96l1.44-.64c.16 0 .32 0 .48.08.08.08.16.16.24.4v.4l-.8 7.99c-.08.72-.08 1.2 0 1.36 0 .16.16.32.32.24.48-.16 2.24-2.32 4.24-8.15.24-.64.32-1.28.4-1.76.16-.8.24-1.36.88-1.68l1.36-.56c.16 0 .32 0 .48.08.08.08.16.24.24.4v.4l-.72 7.91c0 .64 0 1.12.08 1.36.08.16.24.24.4.24 1.28-.32 3.68-6.63 4.55-9.11v-.24l-1.28.32c-.16 0-.32 0-.4-.16l-.08-.16c-.08 0-.08-.08-.08-.16v-.48c0-.08.08-.08.08-.16l.16-.16c.08-.08.16-.16.24-.16l1.6-.4.32-4.16c0-.4.08-.96.64-1.2l1.28-.56c.4-.08.64.08.72.4v.4l-.16 4.47 1.2-.32c.16-.08.32 0 .4.16l.08.16v.72c0 .08-.08.16-.08.24l-.08.16c-.08.08-.16.16-.24.16l-1.44.32-.32 6.71c0 .56 0 1.04.08 1.36.08.24.32.4.56.32.8-.16 2.24-1.92 4.79-8.79l-.24-.48c-.32-1.44.4-3.04 1.6-3.44.16-.08.32 0 .4.08l.08.08c.08.08.08.16.08.32-.16.48-.24.8-.16.96.08.24.16.48.72.32.72-.16 1.92-.96 3.44-2 .08 0 .24-.08.32 0l.16.08c.16.08.24.24.24.4-1.04 4.79-1.76 8.31-1.52 9.35.08.32.4.56.64.48 1.12-.24 2.56-3.68 4.87-9.35l.08-1.28c0-.48.24-.8.64-.96l1.36-.56c.32-.08.64.08.72.4v.32l-.56 7.19c-.08 1.44 0 1.92 0 2.08.08.56.48.48.56.48.72-.16 2.24-1.92 4.95-8.95v-.72l-1.28.32c-.16 0-.32 0-.4-.16l-.08-.16c-.08 0-.08-.08-.08-.16v-.48c0-.08.08-.08.08-.16l.16-.16c.08-.08.16-.16.24-.16l1.6-.4.32-4.16c0-.4.08-.96.64-1.2l1.28-.56c.4-.08.64.08.72.4v.4l-.16 4.47 1.2-.32c.16-.08.32 0 .4.16l.08.16v.72s-.08.08-.08.16l-.08.16c-.08.08-.16.16-.24.16l-1.44.32-.32 6.71c0 .56 0 1.04.08 1.36.08.16.16.24.24.32h.32c.8-.16 2.4-1.92 5.03-9.43l.08-1.36c0-.48.24-.8.64-.96l1.36-.56c.4-.08.64.08.72.4v.32l-.56 7.19c-.08 1.44 0 1.92 0 2.08.16.56.56.48.64.48.64-.16 1.76-1.44 3.76-5.99.16-1.12.56-2.24 1.2-3.44 1.12-2 2.72-3.36 4.47-3.76 1.12-.32 2.24-.08 3.12.56.96.64 1.6 1.68 1.92 2.96.32 1.28.24 2.64-.24 4.23.16.16.32.16.48.16.88-.16 2.24-3.28 3.76-7.11l.08-1.28c0-.48.08-1.04.72-1.36l1.04-.48c.08 0 .24-.08.32-.08.32-.08.64.16.72.48v.32l-.32 4.95c1.76-4.39 3.28-6.71 4.79-7.03 1.2-.32 2.32.4 2.64 1.6.16.72.08 1.84-.08 3.52l-.08.8c-.24 1.84-.4 3.2-.24 3.76 0 0 0 .08.08.08.08.08.16.08.24.08 1.12-.24 3.84-6.71 4.71-8.87 0-.16.08-.24.24-.24.08 0 .24.08.32.16l.24.48c.24.8-.24 1.84-1.28 3.44Z" style="fill:url(#r);stroke-width:0"/><path d="M918.75 244.99c-.48.16-1.04.56-1.44 1.2-1.2 1.92-1.68 4.71-1.2 6.87.24.8.56 1.44.96 1.76s.8.48 1.36.32c.88-.24 1.68-1.28 2.4-3.12-.24-.32-.4-.64-.48-1.12-.32-1.28-.08-2.88.56-4.47-.56-1.12-1.28-1.6-2.16-1.44Z" style="fill:url(#s);stroke-width:0"/></svg>